<?xml version="1.0" encoding="UTF-8"?>
<svg version="1.1" xmlns="http://www.w3.org/2000/svg" width="512" height="512">
<path d="M0 0 C1.16429983 -0.00445784 2.32859967 -0.00891569 3.52818131 -0.01350862 C4.79800284 -0.01332426 6.06782437 -0.01313989 7.37612534 -0.01294994 C8.74615957 -0.01625191 10.11619285 -0.01997818 11.48622489 -0.02409142 C15.24604489 -0.03408215 19.00584893 -0.03782351 22.76568031 -0.04048073 C26.82322361 -0.04439264 30.88075437 -0.05397052 34.93828964 -0.0626936 C44.7364791 -0.08243568 54.53466956 -0.09252254 64.33287394 -0.10142139 C68.95290037 -0.10580903 73.57292567 -0.1111747 78.1929512 -0.11641026 C93.56214408 -0.13342225 108.93133626 -0.14791397 124.30053711 -0.155159 C128.28697587 -0.15706874 132.27341462 -0.15898909 136.25985336 -0.16094494 C137.2506041 -0.16142868 138.24135484 -0.16191242 139.26212832 -0.16241082 C155.29307466 -0.17070192 171.32394616 -0.19602341 187.35485986 -0.22852562 C203.83297904 -0.26166059 220.31106029 -0.27961367 236.78921294 -0.28280324 C246.0330569 -0.28496266 255.27679181 -0.29362756 264.52060318 -0.31926441 C272.39729023 -0.34105975 280.27384174 -0.34897877 288.15055552 -0.33929763 C292.16296112 -0.33477801 296.1750876 -0.3365011 300.18745422 -0.35605907 C334.39869197 -0.51343342 363.0978627 5.4402191 388.09579086 30.13422108 C389.05872055 30.98886951 389.05872055 30.98886951 390.04110336 31.86078358 C405.17465255 45.58656075 414.51297571 68.18676283 417.09579086 88.13422108 C417.24519794 91.86658657 417.24361382 95.59637675 417.24296188 99.33136463 C417.24663857 100.46340179 417.25031526 101.59543895 417.25410336 102.76178026 C417.26512155 106.55715576 417.26898082 110.35250387 417.27279282 114.14789295 C417.27852872 116.86807456 417.28569287 119.5882521 417.29270554 122.30843067 C417.3124271 130.4691659 417.32252772 138.62990229 417.33143333 146.79065537 C417.33582067 150.63519416 417.34118608 154.47973159 417.3464222 158.32426929 C417.36342523 171.10453728 417.37792144 183.88480442 417.38517094 196.66508198 C417.38708075 199.97819997 417.3890011 203.29131796 417.39095688 206.60443592 C417.39144062 207.42786934 417.39192436 208.25130276 417.39242276 209.09968871 C417.40073103 222.45190706 417.42608548 235.80403607 417.45853756 249.15621537 C417.491592 262.86800656 417.50961797 276.57975229 417.51281518 290.29158354 C417.51498107 297.98909938 417.52374198 305.68648466 417.54927635 313.38396168 C417.57096077 319.93579267 417.57904473 326.48746135 417.56930957 333.03932416 C417.56475901 336.38200145 417.56886764 339.72407152 417.58607101 343.06674862 C417.60368047 346.69047676 417.59673691 350.31334982 417.58353806 353.93707752 C417.59999192 355.52141189 417.59999192 355.52141189 417.61677819 357.13775301 C417.56552847 362.94991029 417.26611381 366.72213624 413.09579086 371.13422108 C407.67371502 375.39244332 403.34340314 376.86869244 396.51247787 376.76342678 C395.68171753 376.77069398 394.85095719 376.77796119 393.9950223 376.78544861 C391.21662297 376.80366819 388.43960935 376.78635791 385.66122055 376.76913929 C383.6471079 376.77490168 381.63300051 376.78284358 379.61890411 376.79277551 C374.08831264 376.81365573 368.55815234 376.80332807 363.02755928 376.78784442 C357.06154452 376.77653978 351.09560433 376.79398925 345.12960434 376.80774403 C334.11920974 376.82870458 323.10894334 376.82687114 312.09854376 376.81318668 C301.92683503 376.80060674 291.75517668 376.79732639 281.58346176 376.8032999 C280.90863545 376.80368183 280.23380913 376.80406375 279.53853354 376.80445725 C276.79916367 376.80601396 274.05979382 376.80760596 271.32042401 376.80925607 C245.62528469 376.8245496 219.93023292 376.81068613 194.23510712 376.78377159 C171.40867356 376.76004369 148.58237946 376.76216684 125.75594711 376.78607655 C100.1076824 376.81285223 74.45949502 376.82346497 48.81121826 376.80801523 C46.07685218 376.80641165 43.34248608 376.80484745 40.60811996 376.8032999 C39.93485392 376.80290452 39.26158787 376.80250913 38.56791982 376.80210176 C28.40283185 376.79641543 18.2377998 376.80306384 8.07271957 376.81569767 C-3.485966 376.82999198 -15.04449488 376.82594276 -26.60316181 376.79929395 C-32.50187972 376.78614303 -38.40031441 376.78102545 -44.2990303 376.79753971 C-49.6976287 376.81242537 -55.09568102 376.80427332 -60.49422979 376.77765195 C-62.44835415 376.77206119 -64.40252453 376.7749207 -66.35661936 376.78703089 C-69.01203509 376.80222656 -71.6655782 376.78665458 -74.32089615 376.76342678 C-75.08051383 376.77513261 -75.84013152 376.78683844 -76.62276793 376.79889899 C-82.45141187 376.69691842 -86.34539254 374.71554424 -90.90420914 371.13422108 C-95.81478326 365.93050845 -95.46737586 360.76933357 -95.40541458 353.99091053 C-95.41094898 352.8645179 -95.41648337 351.73812527 -95.42218548 350.57759953 C-95.43580554 346.80067646 -95.42081419 343.02441265 -95.40591812 339.24750233 C-95.4074936 336.54029189 -95.41504828 333.83310545 -95.4222908 331.12590504 C-95.43622263 324.53258291 -95.42866584 317.93945237 -95.41361522 311.34613937 C-95.39673782 303.65892577 -95.39996795 295.97175967 -95.4037093 288.28453326 C-95.40958861 274.55747001 -95.39541788 260.83049844 -95.37076187 247.10345936 C-95.34687839 233.80492172 -95.33974293 220.50650677 -95.35025406 207.20795155 C-95.36168867 192.71513742 -95.36355909 178.22238005 -95.34915596 163.72956657 C-95.34763022 162.1808068 -95.34610986 160.63204702 -95.34459496 159.08328724 C-95.34383714 158.32136859 -95.34307933 157.55944994 -95.34229855 156.77444285 C-95.33757239 151.42639358 -95.33939555 146.07836979 -95.34366035 140.73032093 C-95.34861082 134.19920967 -95.34249855 127.66821396 -95.32276606 121.13712901 C-95.312958 117.80976859 -95.3093491 114.4827282 -95.31565857 111.15533733 C-95.35824035 85.46779367 -95.35824035 85.46779367 -91.90420914 74.13422108 C-91.6711428 73.35595463 -91.43807646 72.57768818 -91.1979475 71.7758379 C-82.79190943 45.8581863 -65.14248504 23.79301662 -40.92227554 11.09515858 C-28.33911465 4.84815566 -14.14950737 0.02524234 0 0 Z " fill="#FED400" transform="translate(94.90420913696289,122.86577892303467)"/>
<path d="M0 0 C33.66 0 67.32 0 102 0 C102 8.58 102 17.16 102 26 C100.07696045 26.01458252 98.1539209 26.02916504 96.17260742 26.04418945 C89.8221581 26.09581462 83.4719643 26.16109327 77.12174511 26.23571491 C73.27120744 26.28046171 69.42077662 26.31970798 65.57006836 26.34643555 C61.85458435 26.37242607 58.1395106 26.41279735 54.42428017 26.46318626 C53.00614839 26.47988396 51.58794561 26.49138017 50.16972923 26.49761391 C48.1848976 26.50722254 46.20019418 26.53696284 44.21557617 26.56762695 C42.52013924 26.58428154 42.52013924 26.58428154 40.79045105 26.60127258 C38.04328694 26.77191766 38.04328694 26.77191766 36.34898567 28.19992352 C34.52825298 30.62949573 34.62523738 32.17814363 34.6257782 35.19995117 C34.61876389 36.2767514 34.61174957 37.35355164 34.60452271 38.46298218 C34.61598831 40.23507553 34.61598831 40.23507553 34.62768555 42.04296875 C34.62403488 43.28704498 34.62038422 44.53112122 34.61662292 45.81289673 C34.60989854 49.22623375 34.61664169 52.63902713 34.62995505 56.05231094 C34.64126399 59.62235817 34.63716248 63.19239118 34.63520813 66.76245117 C34.63432497 72.75802294 34.64540995 78.75348169 34.66381836 84.74902344 C34.68498636 91.68310344 34.68849601 98.61701785 34.6822564 105.55112362 C34.6765638 112.21840033 34.68220717 118.88561867 34.69342995 125.55288696 C34.69807732 128.39174478 34.69894919 131.2305669 34.6968441 134.06942749 C34.69461259 138.03202493 34.70906272 141.99446452 34.7253418 145.95703125 C34.72286438 147.13842682 34.72038696 148.31982239 34.71783447 149.53701782 C34.72491928 150.61381805 34.73200409 151.69061829 34.73930359 152.80004883 C34.74135646 153.73730301 34.74340933 154.67455719 34.74552441 155.64021301 C34.84500202 158.26832043 34.84500202 158.26832043 37 161 C40.07439323 161.30860157 42.94960097 161.41978632 46.02793884 161.40545654 C46.97491514 161.41280894 47.92189144 161.42016133 48.89756399 161.42773652 C52.09057942 161.44883484 55.28323831 161.44844171 58.47631836 161.44824219 C60.75743732 161.45888852 63.03855052 161.47083611 65.31965637 161.48399353 C71.53028967 161.51596565 77.74083983 161.52925795 83.95154262 161.53904247 C90.43913454 161.55211097 96.92665462 161.58125358 103.41419983 161.60845947 C114.31184495 161.65181829 125.20947475 161.68399809 136.10717773 161.70849609 C147.32564901 161.73373174 158.54404106 161.76806956 169.76245117 161.81298828 C170.45321249 161.81575251 171.14397381 161.81851674 171.85566729 161.82136473 C173.24716738 161.82693911 174.63866747 161.83251388 176.03016755 161.83808906 C176.71654488 161.84083711 177.4029222 161.84358515 178.11009884 161.84641647 C178.79471449 161.84916031 179.47933014 161.85190415 180.18469172 161.85473113 C191.51062153 161.89976818 202.83658138 161.93593909 214.16254354 161.97177219 C218.03452791 161.98439843 221.90650662 161.99823198 225.77848625 162.01222992 C231.85636121 162.03366249 237.93422788 162.04973115 244.01212883 162.06158638 C246.24749208 162.06670828 248.48285213 162.07355043 250.7182045 162.08220482 C253.7605071 162.09366112 256.80275694 162.09891004 259.84507751 162.10247803 C261.18397338 162.10961417 261.18397338 162.10961417 262.54991764 162.11689448 C265.95035508 162.11539796 268.75113638 162.08295454 272 161 C272.04667357 143.82388832 272.08196601 126.64779636 272.10362434 109.47163582 C272.11394695 101.49685677 272.12802602 93.52211707 272.15087891 85.54736328 C272.17078273 78.59841762 272.18370927 71.64950045 272.18817699 64.70052707 C272.19078949 61.01942283 272.19695028 57.3384001 272.21146011 53.65732193 C272.22750807 49.55292357 272.22798163 45.44866789 272.22705078 41.34423828 C272.23424133 40.11713135 272.24143188 38.89002441 272.24884033 37.62573242 C272.24471634 35.95560593 272.24471634 35.95560593 272.24050903 34.2517395 C272.24235262 33.2801697 272.24419621 32.30859989 272.24609566 31.30758858 C272.22350401 28.80474763 272.22350401 28.80474763 270 27 C267.1676097 26.66735445 267.1676097 26.66735445 263.80615234 26.68115234 C262.50495453 26.66128265 261.20375671 26.64141296 259.86312866 26.62094116 C258.4374 26.6090638 257.01166955 26.597401 255.5859375 26.5859375 C254.13146862 26.56723326 252.67701067 26.54766041 251.2225647 26.5272522 C247.39215531 26.47584606 243.56171072 26.43626601 239.73114014 26.39910889 C235.82327503 26.35912218 231.91555748 26.3080056 228.0078125 26.2578125 C220.33863503 26.16095281 212.66940087 26.07760891 205 26 C205 17.42 205 8.84 205 0 C306.31 0 407.62 0 512 0 C512.12375 45.849375 512.12375 45.849375 512.25 92.625 C512.28641602 102.28088379 512.32283203 111.93676758 512.36035156 121.88525391 C512.37841797 133.66479492 512.37841797 133.66479492 512.3817749 139.17709351 C512.38550565 143.03192326 512.40051175 146.88653328 512.42230225 150.74130249 C512.44972551 155.65759257 512.45796717 160.57356282 512.4522891 165.48992229 C512.45347653 167.2946523 512.4614165 169.09939342 512.47686052 170.90405774 C512.49675707 173.34217433 512.49196199 175.77904848 512.48101807 178.2171936 C512.49266872 178.92322912 512.50431938 179.62926464 512.51632309 180.35669518 C512.45549449 185.39853611 511.30557172 188.21780043 508 192 C502.61932034 196.29198014 498.22285966 197.73408992 491.41668701 197.6292057 C490.58592667 197.63647291 489.75516633 197.64374011 488.89923143 197.65122753 C486.1208321 197.66944711 483.34381849 197.65213683 480.56542969 197.63491821 C478.55131704 197.6406806 476.53720965 197.6486225 474.52311325 197.65855443 C468.99252178 197.67943466 463.46236148 197.669107 457.93176842 197.65362334 C451.96575366 197.6423187 445.99981346 197.65976818 440.03381348 197.67352295 C429.02341887 197.6944835 418.01315248 197.69265006 407.0027529 197.67896561 C396.83104417 197.66638567 386.65938581 197.66310532 376.4876709 197.66907883 C375.81284458 197.66946075 375.13801827 197.66984268 374.44274268 197.67023618 C371.7033728 197.67179288 368.96400296 197.67338488 366.22463314 197.675035 C340.52949383 197.69032853 314.83444206 197.67646505 289.13931626 197.64955051 C266.31288269 197.62582261 243.4865886 197.62794576 220.66015625 197.65185547 C195.01189153 197.67863115 169.36370415 197.6892439 143.7154274 197.67379415 C140.98106132 197.67219057 138.24669522 197.67062637 135.5123291 197.66907883 C134.50243003 197.66848575 134.50243003 197.66848575 133.47212896 197.66788069 C123.30704099 197.66219435 113.14200894 197.66884276 102.97692871 197.68147659 C91.41824314 197.6957709 79.85971426 197.69172169 68.30104733 197.66507287 C62.40232941 197.65192196 56.50389472 197.64680437 50.60517883 197.66331863 C45.20658043 197.67820429 39.80852812 197.67005225 34.40997934 197.64343087 C32.45585499 197.63784011 30.50168461 197.64069962 28.54758978 197.65280981 C25.89217404 197.66800549 23.23863093 197.65243351 20.58331299 197.6292057 C19.8236953 197.64091153 19.06407762 197.65261737 18.28144121 197.66467792 C12.46965639 197.56299232 8.52600997 195.61023999 4 192 C0.13311484 187.57555164 -0.57519888 183.92589726 -0.48101807 178.2171936 C-0.48443577 177.45252632 -0.48785347 176.68785903 -0.49137473 175.90002 C-0.49794275 173.3478368 -0.47599636 170.79671456 -0.45410156 168.24462891 C-0.45297285 166.41125514 -0.45360742 164.57787956 -0.45587158 162.74450684 C-0.45701872 157.77378753 -0.43350936 152.80345472 -0.40557575 147.83282518 C-0.38056211 142.63583367 -0.37822012 137.43883319 -0.37347412 132.24179077 C-0.36104426 122.40334947 -0.32822242 112.56508606 -0.28807616 102.72672307 C-0.23499664 89.43012139 -0.21341308 76.13347101 -0.19006729 62.83679008 C-0.1524611 41.89106015 -0.07277026 20.94570562 0 0 Z " fill="#FED400" transform="translate(0,302)"/>
<path d="M0 0 C168.96 0 337.92 0 512 0 C512 5.28 512 10.56 512 16 C410.69 16 309.38 16 205 16 C205 24.58 205 33.16 205 42 C206.95333252 41.98428955 208.90666504 41.9685791 210.91918945 41.95239258 C217.36923228 41.90403932 223.81923224 41.86955583 230.26940632 41.84456348 C234.18060226 41.82889991 238.09160234 41.80764937 242.00268555 41.77368164 C245.77632259 41.74111231 249.5497711 41.7231522 253.32353783 41.71536827 C254.76408036 41.70982035 256.20461246 41.69898664 257.64507484 41.68280983 C259.6608234 41.66107041 261.67676121 41.6597749 263.69262695 41.65942383 C264.84068314 41.65276199 265.98873932 41.64610016 267.17158508 41.63923645 C270 42 270 42 271.65254593 43.19322586 C273.47859204 45.64173447 273.3799086 47.22854458 273.38768005 50.26914978 C273.402537 51.90742485 273.402537 51.90742485 273.41769409 53.57879639 C273.41319244 54.77732239 273.4086908 55.97584839 273.40405273 57.21069336 C273.41434761 59.10365898 273.41434761 59.10365898 273.42485046 61.03486633 C273.44281521 64.49773018 273.44160731 67.96034109 273.43590808 71.42323756 C273.43282079 74.31346643 273.43890357 77.2036464 273.44494683 80.09386832 C273.45900149 86.91214813 273.45742317 93.73030269 273.44604492 100.54858398 C273.43456403 107.58385193 273.4486364 114.61873865 273.4754414 121.65395635 C273.49759023 127.69312252 273.50423761 133.73216895 273.49836498 139.77137285 C273.49499203 143.37877659 273.49743248 146.98593598 273.51461601 150.59330559 C273.53293986 154.61575374 273.51890669 158.63745909 273.50170898 162.65991211 C273.51137695 163.85641388 273.52104492 165.05291565 273.53100586 166.28567505 C273.52117172 167.38067825 273.51133759 168.47568146 273.50120544 169.60386658 C273.50099616 170.55494765 273.50078688 171.50602873 273.50057125 172.48593044 C273 175 273 175 271.54795265 177.30788517 C267.7063364 179.85913189 264.24849208 179.53507664 259.73155212 179.4699707 C258.78286697 179.47212711 257.83418182 179.47428352 256.85674864 179.47650528 C253.66970667 179.47875378 250.48355466 179.4522105 247.29663086 179.42578125 C245.01522582 179.42134009 242.73381691 179.4186093 240.45240784 179.41746521 C234.24999251 179.40894772 228.04795517 179.37494448 221.84566951 179.33537292 C215.36351187 179.29716819 208.88129296 179.2785477 202.39906311 179.25683594 C190.81548828 179.21454202 179.23212344 179.15198632 167.64868975 179.08150077 C157.14171102 179.01813632 146.63481837 178.97576091 136.12768555 178.94873047 C123.93009761 178.91734077 111.73269271 178.87259121 99.53522974 178.80806828 C93.07694048 178.77391794 86.61874844 178.74519259 80.16038322 178.7303772 C74.09048267 178.71558483 68.02099906 178.68139277 61.95128441 178.63200569 C59.71918508 178.61704883 57.48702826 178.60893464 55.254879 178.60803032 C52.2166119 178.60570183 49.17952853 178.57901286 46.14146423 178.54589844 C45.25023123 178.55093038 44.35899823 178.55596231 43.44075817 178.56114674 C37.55353007 178.46022055 37.55353007 178.46022055 34.95288849 176.29797363 C33.83157059 173.59381779 33.61993309 171.61609228 33.61231995 168.68652344 C33.60241531 167.6097937 33.59251068 166.53306396 33.58230591 165.42370605 C33.58905838 163.65936218 33.58905838 163.65936218 33.59594727 161.859375 C33.58908401 160.61675903 33.58222076 159.37414307 33.57514954 158.09387207 C33.55998255 154.6888056 33.55838772 151.28428646 33.56409192 147.87922668 C33.56718214 145.03616861 33.5610933 142.19316012 33.55505317 139.3501091 C33.54100717 132.64352035 33.5425702 125.93705898 33.55395508 119.23046875 C33.56544072 112.31162524 33.55135366 105.39316914 33.5245586 98.47437668 C33.50240988 92.53285364 33.49576219 86.59145229 33.50163502 80.6498909 C33.50500732 77.10174531 33.50257159 73.55384817 33.48538399 70.0057373 C33.46706036 66.05054498 33.4810935 62.09583022 33.49829102 58.140625 C33.48862305 56.96439575 33.47895508 55.7881665 33.46899414 54.57629395 C33.47882828 53.49956421 33.48866241 52.42283447 33.49879456 51.31347656 C33.49900384 50.37844299 33.49921312 49.44340942 33.49942875 48.4800415 C34.15559441 45.22911955 35.42815083 44.03056768 38 42 C40.91070557 41.51898193 40.91070557 41.51898193 44.32910156 41.54589844 C45.61012756 41.54620056 46.89115356 41.54650269 48.21099854 41.54681396 C49.60421371 41.56723905 50.9974225 41.58810301 52.390625 41.609375 C53.81979582 41.61683869 55.2489769 41.62253102 56.67816162 41.62652588 C60.43327262 41.6417725 64.18776125 41.68104484 67.94262695 41.7253418 C71.77676983 41.76631613 75.61101362 41.78454144 79.4453125 41.8046875 C86.96385777 41.84754116 94.48176227 41.91788179 102 42 C102 33.42 102 24.84 102 16 C68.34 16 34.68 16 0 16 C0 10.72 0 5.44 0 0 Z " fill="#34d399" transform="translate(0,286)"/>
<path d="M0 0 C0.97872086 -0.00085442 1.95744172 -0.00170885 2.96582079 -0.00258917 C6.23004037 -0.00423016 9.49420804 0.00125474 12.75842285 0.00672913 C15.10440062 0.00701132 17.45037848 0.00685263 19.7963562 0.00628662 C26.15519155 0.00599991 32.51400801 0.01187628 38.87283897 0.01886058 C44.84797852 0.02448115 50.82311811 0.02548423 56.79825979 0.02651245 C68.62905989 0.02869823 80.45985307 0.03534544 92.29064941 0.04481506 C103.77958136 0.05400146 115.26851141 0.06107629 126.75744629 0.06532288 C127.46624945 0.0655856 128.17505261 0.06584832 128.90533465 0.06611901 C132.46137852 0.0674241 136.01742241 0.06868779 139.5734663 0.06993091 C169.04983648 0.08028875 198.52619991 0.09796876 228.00256348 0.12025452 C228.00256348 0.45025452 228.00256348 0.78025452 228.00256348 1.12025452 C226.09797363 1.44896545 226.09797363 1.44896545 224.15490723 1.78431702 C195.49439289 6.96888074 170.83373091 20.30089904 153.67736816 44.39344788 C145.75997486 56.04443547 139.7061858 69.88367762 137.37756348 83.80775452 C137.24986572 84.56451477 137.12216797 85.32127502 136.99060059 86.10096741 C136.09809695 92.28686067 135.85380032 98.42850198 135.73303223 104.66712952 C135.71625427 105.51519669 135.69947632 106.36326385 135.68218994 107.23703003 C135.60494396 111.56471326 135.56161668 115.89028558 135.5567627 120.21864319 C135.54021234 121.84079708 135.52345662 123.46294889 135.50646973 125.08509827 C135.51478317 125.83543335 135.52309662 126.58576843 135.53166199 127.35884094 C135.48605372 130.49815362 135.30108369 132.66963796 133.54790497 135.31606293 C129.74007405 138.01513358 126.34221428 137.67422867 121.77880859 137.62818909 C120.83491256 137.63442905 119.89101653 137.64066901 118.91851759 137.64709806 C115.74771297 137.66308494 112.57767102 137.65040132 109.40686035 137.63783264 C107.13692271 137.64325121 104.86698859 137.65037238 102.59706116 137.65907288 C96.4256513 137.67734049 90.25450829 137.67022437 84.08309364 137.65755653 C77.63204847 137.64744673 71.18102652 137.65681659 64.72998047 137.6631012 C53.20103037 137.67085027 41.67221701 137.65840051 30.14328831 137.63806385 C19.68827939 137.62019257 9.2334481 137.6232966 -1.22155762 137.64173889 C-13.36012784 137.66314088 -25.49855862 137.67111525 -37.63715124 137.65928984 C-44.06365062 137.65304579 -50.4900276 137.65224437 -56.91651917 137.66543579 C-62.95761897 137.6769694 -68.99838249 137.66901381 -75.03944588 137.64585876 C-77.25986738 137.64055839 -79.48031707 137.64210801 -81.70072746 137.65090942 C-84.72543084 137.6617958 -87.74904799 137.64818451 -90.77368164 137.62818909 C-92.10032546 137.64157342 -92.10032546 137.64157342 -93.45377016 137.65522814 C-99.3473821 137.57934675 -99.3473821 137.57934675 -102.54256439 135.32279205 C-104.74387392 131.99021955 -104.54940287 128.69048364 -104.49353027 124.83119202 C-104.4949855 124.01389618 -104.49644073 123.19660034 -104.49794006 122.35453796 C-104.49628013 120.61787876 -104.4847082 118.88120498 -104.46398926 117.14466858 C-104.43556446 114.55251824 -104.44327118 111.96248652 -104.4564209 109.37025452 C-104.41823781 78.81099362 -95.31211388 51.20823256 -73.49743652 29.18275452 C-68.39880744 24.17774643 -63.07656244 19.89971109 -56.99743652 16.12025452 C-56.23431152 15.61236389 -55.47118652 15.10447327 -54.68493652 14.58119202 C-38.26883583 4.05112743 -19.32361756 -0.06235068 0 0 Z " fill="#34d399" transform="translate(137.9974365234375,122.87974548339844)"/>
<path d="M0 0 C33.66 0 67.32 0 102 0 C102 8.58 102 17.16 102 26 C100.07696045 26.01458252 98.1539209 26.02916504 96.17260742 26.04418945 C89.8221581 26.09581462 83.4719643 26.16109327 77.12174511 26.23571491 C73.27120744 26.28046171 69.42077662 26.31970798 65.57006836 26.34643555 C61.85458435 26.37242607 58.1395106 26.41279735 54.42428017 26.46318626 C53.00614839 26.47988396 51.58794561 26.49138017 50.16972923 26.49761391 C48.1848976 26.50722254 46.20019418 26.53696284 44.21557617 26.56762695 C42.52013924 26.58428154 42.52013924 26.58428154 40.79045105 26.60127258 C38.04328694 26.77191766 38.04328694 26.77191766 36.34898567 28.19992352 C34.52825298 30.62949573 34.62523738 32.17814363 34.6257782 35.19995117 C34.61876389 36.2767514 34.61174957 37.35355164 34.60452271 38.46298218 C34.61598831 40.23507553 34.61598831 40.23507553 34.62768555 42.04296875 C34.62403488 43.28704498 34.62038422 44.53112122 34.61662292 45.81289673 C34.60989854 49.22623375 34.61664169 52.63902713 34.62995505 56.05231094 C34.64126399 59.62235817 34.63716248 63.19239118 34.63520813 66.76245117 C34.63432497 72.75802294 34.64540995 78.75348169 34.66381836 84.74902344 C34.68498636 91.68310344 34.68849601 98.61701785 34.6822564 105.55112362 C34.6765638 112.21840033 34.68220717 118.88561867 34.69342995 125.55288696 C34.69807732 128.39174478 34.69894919 131.2305669 34.6968441 134.06942749 C34.69461259 138.03202493 34.70906272 141.99446452 34.7253418 145.95703125 C34.72286438 147.13842682 34.72038696 148.31982239 34.71783447 149.53701782 C34.72491928 150.61381805 34.73200409 151.69061829 34.73930359 152.80004883 C34.74135646 153.73730301 34.74340933 154.67455719 34.74552441 155.64021301 C34.84500202 158.26832043 34.84500202 158.26832043 37 161 C40.07439323 161.30860157 42.94960097 161.41978632 46.02793884 161.40545654 C46.97491514 161.41280894 47.92189144 161.42016133 48.89756399 161.42773652 C52.09057942 161.44883484 55.28323831 161.44844171 58.47631836 161.44824219 C60.75743732 161.45888852 63.03855052 161.47083611 65.31965637 161.48399353 C71.53028967 161.51596565 77.74083983 161.52925795 83.95154262 161.53904247 C90.43913454 161.55211097 96.92665462 161.58125358 103.41419983 161.60845947 C114.31184495 161.65181829 125.20947475 161.68399809 136.10717773 161.70849609 C147.32564901 161.73373174 158.54404106 161.76806956 169.76245117 161.81298828 C170.45321249 161.81575251 171.14397381 161.81851674 171.85566729 161.82136473 C173.24716738 161.82693911 174.63866747 161.83251388 176.03016755 161.83808906 C176.71654488 161.84083711 177.4029222 161.84358515 178.11009884 161.84641647 C178.79471449 161.84916031 179.47933014 161.85190415 180.18469172 161.85473113 C191.51062153 161.89976818 202.83658138 161.93593909 214.16254354 161.97177219 C218.03452791 161.98439843 221.90650662 161.99823198 225.77848625 162.01222992 C231.85636121 162.03366249 237.93422788 162.04973115 244.01212883 162.06158638 C246.24749208 162.06670828 248.48285213 162.07355043 250.7182045 162.08220482 C253.7605071 162.09366112 256.80275694 162.09891004 259.84507751 162.10247803 C261.18397338 162.10961417 261.18397338 162.10961417 262.54991764 162.11689448 C265.95035508 162.11539796 268.75113638 162.08295454 272 161 C272.04667357 143.82388832 272.08196601 126.64779636 272.10362434 109.47163582 C272.11394695 101.49685677 272.12802602 93.52211707 272.15087891 85.54736328 C272.17078273 78.59841762 272.18370927 71.64950045 272.18817699 64.70052707 C272.19078949 61.01942283 272.19695028 57.3384001 272.21146011 53.65732193 C272.22750807 49.55292357 272.22798163 45.44866789 272.22705078 41.34423828 C272.23424133 40.11713135 272.24143188 38.89002441 272.24884033 37.62573242 C272.24471634 35.95560593 272.24471634 35.95560593 272.24050903 34.2517395 C272.24235262 33.2801697 272.24419621 32.30859989 272.24609566 31.30758858 C272.22350401 28.80474763 272.22350401 28.80474763 270 27 C267.1676097 26.66735445 267.1676097 26.66735445 263.80615234 26.68115234 C262.50495453 26.66128265 261.20375671 26.64141296 259.86312866 26.62094116 C258.4374 26.6090638 257.01166955 26.597401 255.5859375 26.5859375 C254.13146862 26.56723326 252.67701067 26.54766041 251.2225647 26.5272522 C247.39215531 26.47584606 243.56171072 26.43626601 239.73114014 26.39910889 C235.82327503 26.35912218 231.91555748 26.3080056 228.0078125 26.2578125 C220.33863503 26.16095281 212.66940087 26.07760891 205 26 C205 17.42 205 8.84 205 0 C238.66 0 272.32 0 307 0 C307.01417969 13.1896875 307.02835937 26.379375 307.04296875 39.96875 C307.06302228 48.31772799 307.08433177 56.66667136 307.11132812 65.015625 C307.15395679 78.27150192 307.19141359 91.52725084 307.19555664 104.78320312 C307.19859756 114.43731388 307.21910544 124.0912031 307.26052457 133.74522829 C307.28184446 138.85627878 307.29446029 143.9670144 307.28615379 149.07810974 C307.27860738 153.89141564 307.29446066 158.70408386 307.32806015 163.51727295 C307.33628626 165.28125632 307.33605179 167.04530318 307.32659721 168.8092804 C306.99007027 180.343184 306.99007027 180.343184 311.55711842 190.63159943 C314.1152096 193.0576429 316.81560872 194.50146293 320 196 C320 196.33 320 196.66 320 197 C280.89883186 197.11444386 241.79768555 197.2025481 202.69638339 197.25532665 C198.08014073 197.26158018 193.46389841 197.26805179 188.84765625 197.2746582 C187.92864538 197.27596976 187.00963452 197.27728131 186.06277484 197.2786326 C171.18218417 197.30038927 156.30169008 197.33981224 141.4211567 197.38576398 C126.15239654 197.43252134 110.88368697 197.46029387 95.61485815 197.47044247 C86.19309841 197.47730313 76.77161166 197.49897187 67.34993595 197.53958233 C60.88916541 197.56601181 54.428536 197.57400054 47.96771532 197.56750689 C44.2400465 197.56430428 40.5128547 197.56921387 36.78527069 197.59602737 C32.74150459 197.62490247 28.69875305 197.614934 24.65490723 197.60127258 C22.89224321 197.62311889 22.89224321 197.62311889 21.09396982 197.64540654 C14.14599975 197.58187989 9.23806272 196.78002755 4 192 C0.13311484 187.57555164 -0.57519888 183.92589726 -0.48101807 178.2171936 C-0.48443577 177.45252632 -0.48785347 176.68785903 -0.49137473 175.90002 C-0.49794275 173.3478368 -0.47599636 170.79671456 -0.45410156 168.24462891 C-0.45297285 166.41125514 -0.45360742 164.57787956 -0.45587158 162.74450684 C-0.45701872 157.77378753 -0.43350936 152.80345472 -0.40557575 147.83282518 C-0.38056211 142.63583367 -0.37822012 137.43883319 -0.37347412 132.24179077 C-0.36104426 122.40334947 -0.32822242 112.56508606 -0.28807616 102.72672307 C-0.23499664 89.43012139 -0.21341308 76.13347101 -0.19006729 62.83679008 C-0.1524611 41.89106015 -0.07277026 20.94570562 0 0 Z " fill="#FEE45A" transform="translate(0,302)"/>
<path d="M0 0 C1.0950032 -0.00983414 2.19000641 -0.01966827 3.31819153 -0.02980042 C5.11294418 -0.01529846 5.11294418 -0.01529846 6.94395447 -0.00050354 C8.83954857 -0.00860802 8.83954857 -0.00860802 10.7734375 -0.01687622 C14.2362763 -0.03083405 17.69861844 -0.01965994 21.16142964 -0.00316501 C24.78485964 0.01068661 28.40826084 0.00422541 32.03170776 0.0007019 C38.11549383 -0.0019998 44.19908255 0.01147296 50.28282166 0.03465271 C57.31865344 0.0612743 64.35415552 0.0630057 71.39002043 0.05126435 C78.15716593 0.04049011 84.92419204 0.04667002 91.69132805 0.06081963 C94.57206986 0.06658135 97.45272437 0.06649535 100.33346748 0.06175423 C104.35355249 0.05610148 108.3731438 0.07528982 112.39317322 0.09715271 C113.59169922 0.09265106 114.79022522 0.08814941 116.02507019 0.08351135 C117.11725357 0.09341599 118.20943695 0.10332062 119.3347168 0.11352539 C120.28542085 0.11595529 121.2361249 0.11838518 122.21563816 0.12088871 C124.60386658 0.50120544 124.60386658 0.50120544 126.40853786 1.69611359 C128.03353535 4.1500576 127.98675987 5.8341688 127.99827576 8.77035522 C128.00962555 9.8625386 128.02097534 10.95472198 128.03266907 12.08000183 C128.02973846 13.27852783 128.02680786 14.47705383 128.02378845 15.7118988 C128.032258 16.97387589 128.04072754 18.23585297 128.04945374 19.53607178 C128.07169411 22.9989209 128.0745992 26.46153226 128.07270622 29.92444301 C128.07258664 32.81467481 128.08114588 35.70485601 128.08948374 38.59507376 C128.10872687 45.41334656 128.11159835 52.23149692 128.10484314 59.04978943 C128.0982012 66.08512371 128.12107017 73.11993384 128.15815687 80.1551618 C128.18883831 86.19433141 128.20021564 92.23333229 128.19632006 98.2725783 C128.1942509 101.88004973 128.19975652 105.48711335 128.22421265 109.09451103 C128.25058187 113.11706702 128.23676413 117.13851405 128.21910095 121.16111755 C128.2323642 122.35761932 128.24562744 123.55412109 128.2592926 124.78688049 C128.17862597 132.66731482 128.17862597 132.66731482 125.70475769 136.25653076 C121.19431413 138.06698934 117.18599732 137.92304012 112.37437439 137.75608826 C110.28897288 137.71910998 108.20356403 137.68254384 106.1181488 137.64634705 C105.04069901 137.62069168 103.96324921 137.59503632 102.85314941 137.56860352 C97.67213845 137.46113668 92.4918396 137.47344019 87.30992126 137.47288513 C77.00924259 137.44333248 66.70872434 137.38448315 56.40822983 137.3173027 C50.22375461 137.27742638 44.03943229 137.24540119 37.85484314 137.23020935 C31.8111081 137.21511392 25.76776568 137.18084771 19.72420502 137.13289642 C17.43244571 137.1180658 15.14063069 137.11016347 12.84882355 137.10932159 C9.66875399 137.10697082 6.48979969 137.08006306 3.30992126 137.04710388 C2.36566284 137.05213425 1.42140442 137.05716461 0.4485321 137.06234741 C-0.41425354 137.0484346 -1.27703918 137.03452179 -2.16596985 137.02018738 C-2.91501209 137.01650021 -3.66405434 137.01281303 -4.43579483 137.00901413 C-6.39613342 136.50120544 -6.39613342 136.50120544 -8.13628864 134.80086136 C-9.64433372 132.04815338 -9.77567943 130.31774387 -9.78381348 127.18772888 C-9.79371811 126.11099915 -9.80362274 125.03426941 -9.81382751 123.9249115 C-9.80932587 122.74868225 -9.80482422 121.572453 -9.80018616 120.36058044 C-9.81048103 118.49665649 -9.81048103 118.49665649 -9.82098389 116.59507751 C-9.83615087 113.19001105 -9.83774571 109.7854919 -9.8320415 106.38043213 C-9.82895129 103.53737405 -9.83504012 100.69436557 -9.84108025 97.85131454 C-9.85512625 91.14472579 -9.85356323 84.43826443 -9.84217834 77.73167419 C-9.83069271 70.81283068 -9.84477976 63.89437459 -9.87157482 56.97558212 C-9.89372354 51.03405909 -9.90037123 45.09265774 -9.89449841 39.15109634 C-9.8911261 35.60295076 -9.89356184 32.05505362 -9.91074944 28.50694275 C-9.92907307 24.55175042 -9.91503993 20.59703566 -9.89784241 16.64183044 C-9.90751038 15.4656012 -9.91717834 14.28937195 -9.92713928 13.07749939 C-9.91730515 12.00076965 -9.90747101 10.92403992 -9.89733887 9.81468201 C-9.89712958 8.87964844 -9.8969203 7.94461487 -9.89670467 6.98124695 C-8.77468782 1.42230133 -5.26863782 0.00115936 0 0 Z " fill="#34d399" transform="translate(350.39613342285156,327.49879455566406)"/>
<path d="M0 0 C0.85715607 0.00141495 1.71431213 0.0028299 2.59744263 0.00428772 C5.3176024 0.00985603 8.03767788 0.02240261 10.7578125 0.03515625 C12.60937381 0.04017535 14.46093641 0.04473754 16.3125 0.04882812 C20.83596965 0.05981508 25.35937682 0.07705773 29.8828125 0.09765625 C29.8828125 0.42765625 29.8828125 0.75765625 29.8828125 1.09765625 C28.74585937 1.25621094 27.60890625 1.41476563 26.4375 1.578125 C-0.7689733 5.59544647 -24.95024715 17.99014635 -42.20703125 39.73046875 C-43.93290537 42.13989476 -45.54259911 44.58726598 -47.1171875 47.09765625 C-47.62636719 47.86207031 -48.13554688 48.62648437 -48.66015625 49.4140625 C-59.01226868 65.56761583 -63.21952916 84.27681601 -63.3203125 103.3046875 C-63.32886261 104.57550423 -63.32886261 104.57550423 -63.33758545 105.87199402 C-63.34696648 107.64764175 -63.35354169 109.42330634 -63.35742188 111.19897461 C-63.36722317 113.92005919 -63.39834793 116.64041719 -63.4296875 119.36132812 C-63.43620978 121.09244346 -63.44146328 122.82356415 -63.4453125 124.5546875 C-63.4576593 125.3671846 -63.4700061 126.1796817 -63.48272705 127.01679993 C-63.57017039 131.17310475 -63.57017039 131.17310475 -61.84293318 134.81116736 C-58.72887345 137.13260052 -54.7476474 136.50679708 -51.00695801 136.47860718 C-49.59133725 136.48562714 -49.59133725 136.48562714 -48.14711809 136.49278891 C-44.97098449 136.50479658 -41.79527777 136.49525909 -38.61914062 136.48583984 C-36.34772997 136.48990298 -34.07632129 136.49524339 -31.80491638 136.50177002 C-25.62528858 136.51548011 -19.44581055 136.51012971 -13.26618004 136.50063276 C-6.80932578 136.49305528 -0.35248463 136.50007644 6.10437012 136.50479126 C17.64430581 136.51060466 29.1841647 136.50126193 40.72408837 136.48601325 C51.19190658 136.47260957 61.659625 136.47493752 72.12744141 136.48876953 C84.27696466 136.50481616 96.42640955 136.51080437 108.57594538 136.50193274 C115.00967462 136.49724748 121.44333507 136.49665477 127.87705994 136.50654221 C133.92465521 136.51518647 139.97206138 136.50923646 146.01963615 136.49185944 C148.24370446 136.48788099 150.46778858 136.48905169 152.69185066 136.49564743 C155.71897881 136.50379939 158.7454943 136.49361829 161.77258301 136.47860718 C162.66060718 136.48529934 163.54863135 136.49199151 164.46356535 136.49888647 C168.8084788 136.59084789 168.8084788 136.59084789 172.60678816 134.79452002 C174.75267778 131.94090491 174.30345325 128.59265852 174.2890625 125.16015625 C174.30869027 123.53531722 174.32847144 121.91048004 174.34838867 120.28564453 C174.353414 119.43746155 174.35843933 118.58927856 174.36361694 117.71539307 C174.6176525 83.07205093 181.0195839 54.77627498 205.6328125 28.91015625 C216.31716787 18.65782769 228.29449555 11.79920312 241.8828125 6.09765625 C242.70136719 5.74960938 243.51992188 5.4015625 244.36328125 5.04296875 C257.94891252 -0.0549277 272.64813112 -0.32117089 286.9453125 -0.08984375 C288.60220109 -0.07473831 290.25910333 -0.06106047 291.91601562 -0.04882812 C295.9052965 -0.01635809 299.89389498 0.03508374 303.8828125 0.09765625 C303.8828125 0.42765625 303.8828125 0.75765625 303.8828125 1.09765625 C302.67367188 1.25621094 301.46453125 1.41476563 300.21875 1.578125 C273.54811643 5.28541967 248.47391712 17.13329803 231.54589844 38.80957031 C203.78735206 76.37245978 209.54848091 115.16953039 208.8828125 163.09765625 C107.5728125 163.09765625 6.2628125 163.09765625 -98.1171875 163.09765625 C-98.1171875 59.41577635 -98.1171875 59.41577635 -67.9921875 28.47265625 C-50.17490754 10.81249516 -25.17589934 -0.15805677 0 0 Z " fill="#FEE45A" transform="translate(98.1171875,122.90234375)"/>
<path d="M0 0 C17.1296887 10.90364366 27.35330207 27.57055836 32.17219543 47.13052368 C32.91680573 51.00123853 32.93074985 54.84195071 32.94140625 58.7734375 C32.95139145 60.07399078 32.95139145 60.07399078 32.96157837 61.40081787 C32.97163869 63.21933894 32.97639746 65.03789644 32.97607422 66.85644531 C32.98047899 69.63928023 33.01695291 72.42056663 33.0546875 75.203125 C33.06055078 76.97655711 33.06452344 78.7499967 33.06640625 80.5234375 C33.08077728 81.35264709 33.09514832 82.18185669 33.10995483 83.03619385 C33.10380157 83.81090027 33.09764832 84.58560669 33.09130859 85.38378906 C33.09415863 86.06137268 33.09700867 86.7389563 33.09994507 87.43707275 C32.36518159 90.32833052 30.87823932 91.49779152 28.60546875 93.3828125 C26.10980988 93.88897038 26.10980988 93.88897038 23.25402832 93.8974762 C22.16888443 93.91020065 21.08374054 93.92292511 19.9657135 93.93603516 C18.78013351 93.92950928 17.59455353 93.9229834 16.37304688 93.91625977 C15.12067734 93.92487534 13.8683078 93.93349091 12.57798767 93.94236755 C9.14591805 93.96118334 5.71481346 93.96192168 2.28276634 93.95304608 C-0.58267265 93.94793576 -3.44802503 93.95522897 -6.3134551 93.96251816 C-13.07281663 93.97951809 -19.8319524 93.97595006 -26.59130859 93.95922852 C-33.56476885 93.94230044 -40.53760345 93.95815024 -47.51099539 93.9904514 C-53.49924651 94.01713848 -59.48730277 94.02442596 -65.4756074 94.01593632 C-69.05174554 94.01100518 -72.62750709 94.01323226 -76.20359802 94.03372383 C-80.19001825 94.05547344 -84.17568269 94.03669212 -88.16210938 94.01391602 C-89.34768936 94.02560822 -90.53326935 94.03730042 -91.754776 94.04934692 C-99.71324037 93.95654255 -99.71324037 93.95654255 -103.12670898 91.08198547 C-104.84599304 87.42165769 -104.96812365 84.07507814 -104.92578125 80.109375 C-104.92960815 79.30857513 -104.93343506 78.50777527 -104.93737793 77.68270874 C-104.940095 75.98653915 -104.93274806 74.29032751 -104.91601562 72.59423828 C-104.89488254 70.05010284 -104.91567389 67.50888345 -104.94140625 64.96484375 C-104.9798893 43.38494632 -98.49905636 25.0968504 -83.37890625 9.2734375 C-74.69923399 0.97952845 -64.03876346 -4.82563101 -52.39453125 -7.6171875 C-51.31945312 -7.96265625 -50.244375 -8.308125 -49.13671875 -8.6640625 C-32.627068 -12.86902574 -14.40239394 -8.53178026 0 0 Z " fill="#34d399" transform="translate(445.39453125,166.6171875)"/>
<path d="M0 0 C168.96 0 337.92 0 512 0 C512 5.28 512 10.56 512 16 C343.04 16 174.08 16 0 16 C0 10.72 0 5.44 0 0 Z " fill="#7E8E95" transform="translate(0,286)"/>
<path d="M0 0 C33.99 0 67.98 0 103 0 C103 56.84450605 103 56.84450605 93.375 67.1875 C86.91905277 73.32911272 79.1235913 77.07161836 70.19067383 77.17700195 C69.23900833 77.18983719 68.28734283 77.20267242 67.30683899 77.21589661 C66.28390244 77.22328354 65.26096588 77.23067047 64.20703125 77.23828125 C63.1464299 77.246353 62.08582855 77.25442474 60.99308777 77.26274109 C58.74793118 77.2765654 56.50275371 77.28729494 54.25756836 77.29516602 C51.96974499 77.30667728 49.68194829 77.32711537 47.39428711 77.35668945 C44.08168352 77.39951144 40.76987782 77.41555675 37.45703125 77.42578125 C36.44421585 77.44328934 35.43140045 77.46079742 34.38789368 77.47883606 C24.41798487 77.44868633 16.24891749 73.86659062 9 67 C-6.62123964 48.58672885 0 22.26955948 0 0 Z " fill="#34d399" transform="translate(102,302)"/>
<path d="M0 0 C0 0.33 0 0.66 0 1 C-1.26972656 1.21914062 -2.53945313 1.43828125 -3.84765625 1.6640625 C-32.50817058 6.84862622 -57.16883257 20.18064452 -74.32519531 44.27319336 C-82.24258862 55.92418096 -88.29637768 69.76342311 -90.625 83.6875 C-90.81654663 84.82264038 -90.81654663 84.82264038 -91.01196289 85.98071289 C-91.90446652 92.16660615 -92.14876315 98.30824747 -92.26953125 104.546875 C-92.29469818 105.81897575 -92.29469818 105.81897575 -92.32037354 107.11677551 C-92.39761952 111.44445875 -92.4409468 115.77003106 -92.44580078 120.09838867 C-92.46235113 121.72054256 -92.47910686 123.34269437 -92.49609375 124.96484375 C-92.4877803 125.71517883 -92.47946686 126.46551392 -92.47090149 127.23858643 C-92.51976815 130.60218124 -92.77307913 132.66511271 -94.67895508 135.4777832 C-97.56180914 137.36845272 -99.2107162 137.46360178 -102.640625 137.390625 C-103.71054687 137.37773437 -104.78046875 137.36484375 -105.8828125 137.3515625 C-107.54957031 137.30128906 -107.54957031 137.30128906 -109.25 137.25 C-110.37664062 137.23195313 -111.50328125 137.21390625 -112.6640625 137.1953125 C-115.44356896 137.14820222 -118.2213534 137.08243361 -121 137 C-120.27115601 136.50850464 -120.27115601 136.50850464 -119.52758789 136.00708008 C-117.17510085 132.91617454 -117.55915405 129.62062913 -117.55859375 125.88671875 C-117.54538589 125.08071732 -117.53217804 124.27471588 -117.51856995 123.44429016 C-117.47767016 120.85866017 -117.45605491 118.27337969 -117.4375 115.6875 C-117.21640889 92.26300887 -114.56891445 71.70700641 -103 51 C-102.443125 49.9996875 -101.88625 48.999375 -101.3125 47.96875 C-87.38299912 24.66362352 -63.68666405 9.23921161 -37.85400391 2.1640625 C-25.41129042 -0.93189326 -12.73149277 -0.38463724 0 0 Z " fill="#10b981" transform="translate(366,123)"/>
<path d="M0 0 C4.10403363 -0.08694042 8.20783129 -0.14037149 12.3125 -0.1875 C13.47974609 -0.21263672 14.64699219 -0.23777344 15.84960938 -0.26367188 C16.96787109 -0.27333984 18.08613281 -0.28300781 19.23828125 -0.29296875 C20.26993408 -0.3086792 21.30158691 -0.32438965 22.36450195 -0.34057617 C25 0 25 0 26.64090919 1.19154358 C28.48330105 3.64309823 28.37732463 5.22369939 28.38095093 8.27587891 C28.3894104 9.36950745 28.39786987 10.46313599 28.40658569 11.58990479 C28.400513 12.79000183 28.39444031 13.99009888 28.38818359 15.2265625 C28.39344055 16.49014587 28.39869751 17.75372925 28.40411377 19.05560303 C28.41780202 22.52254599 28.41248268 25.98922143 28.40297651 29.45616913 C28.39538765 33.08227771 28.40242337 36.70836319 28.40713501 40.33447266 C28.41259483 46.42419553 28.40539506 52.51380931 28.39111328 58.60351562 C28.37478625 65.64670111 28.3800746 72.68962608 28.3965925 79.73280525 C28.41020096 85.77704666 28.41213019 91.82120958 28.40427649 97.86546135 C28.39959642 101.47669623 28.39898419 105.08780861 28.40888596 108.69903564 C28.41915101 112.72399354 28.40492876 116.74850144 28.38818359 120.7734375 C28.39729263 122.57358307 28.39729263 122.57358307 28.40658569 124.41009521 C28.39812622 125.50372375 28.38966675 126.59735229 28.38095093 127.72412109 C28.37981985 128.67612396 28.37868877 129.62812683 28.37752342 130.60897827 C27.93163694 133.43297328 27.28849375 134.33238325 25 136 C22.45629883 136.34057617 22.45629883 136.34057617 19.45703125 136.29296875 C18.38388672 136.28330078 17.31074219 136.27363281 16.20507812 136.26367188 C15.08552734 136.23853516 13.96597656 136.21339844 12.8125 136.1875 C11.68134766 136.17396484 10.55019531 136.16042969 9.38476562 136.14648438 C6.58936683 136.11109958 3.79492108 136.06172948 1 136 C1.66 135.01 2.32 134.02 3 133 C3.30449654 130.53162116 3.30449654 130.53162116 3.26069641 127.72412109 C3.26778122 126.63049255 3.27486603 125.53686401 3.28216553 124.41009521 C3.27968811 123.20999817 3.27721069 122.00990112 3.2746582 120.7734375 C3.2823246 118.87806244 3.2823246 118.87806244 3.29014587 116.94439697 C3.30354663 113.47751224 3.30411346 110.01073646 3.30158257 106.54383087 C3.30051376 103.65103208 3.30539383 100.75825541 3.310188 97.86546135 C3.32128652 91.04245223 3.32171841 84.21949816 3.31567383 77.39648438 C3.30963027 70.35330995 3.32195382 63.31033511 3.3432439 56.26719475 C3.36084389 50.22296307 3.36686387 44.17879502 3.36360615 38.13453865 C3.36179085 34.52329203 3.364454 30.91218782 3.37832069 27.30096436 C3.3931976 23.27603128 3.38394307 19.2515062 3.37231445 15.2265625 C3.37995819 14.02646545 3.38760193 12.82636841 3.39547729 11.58990479 C3.38846298 10.49627625 3.38144867 9.40264771 3.3742218 8.27587891 C3.37438954 7.32387604 3.37455729 6.37187317 3.37473011 5.39102173 C2.93783425 2.60334211 2.17639979 1.72486056 0 0 Z " fill="#10b981" transform="translate(450,328)"/>
<path d="M0 0 C3.93736123 -0.08696177 7.87447628 -0.14037835 11.8125 -0.1875 C13.49182617 -0.22520508 13.49182617 -0.22520508 15.20507812 -0.26367188 C16.27822266 -0.27333984 17.35136719 -0.28300781 18.45703125 -0.29296875 C19.9416687 -0.31653442 19.9416687 -0.31653442 21.45629883 -0.34057617 C24 0 24 0 25.63517189 1.19154358 C27.48508341 3.64275655 27.37731992 5.21973434 27.38095093 8.27587891 C27.3894104 9.36950745 27.39786987 10.46313599 27.40658569 11.58990479 C27.400513 12.79000183 27.39444031 13.99009888 27.38818359 15.2265625 C27.39344055 16.49014587 27.39869751 17.75372925 27.40411377 19.05560303 C27.41780202 22.52254599 27.41248268 25.98922143 27.40297651 29.45616913 C27.39538765 33.08227771 27.40242337 36.70836319 27.40713501 40.33447266 C27.41259483 46.42419553 27.40539506 52.51380931 27.39111328 58.60351562 C27.37478625 65.64670111 27.3800746 72.68962608 27.3965925 79.73280525 C27.41020096 85.77704666 27.41213019 91.82120958 27.40427649 97.86546135 C27.39959642 101.47669623 27.39898419 105.08780861 27.40888596 108.69903564 C27.41915101 112.72399354 27.40492876 116.74850144 27.38818359 120.7734375 C27.39729263 122.57358307 27.39729263 122.57358307 27.40658569 124.41009521 C27.39812622 125.50372375 27.38966675 126.59735229 27.38095093 127.72412109 C27.37981985 128.67612396 27.37868877 129.62812683 27.37752342 130.60897827 C26.93163694 133.43297328 26.28849375 134.33238325 24 136 C21.45629883 136.34057617 21.45629883 136.34057617 18.45703125 136.29296875 C17.38388672 136.28330078 16.31074219 136.27363281 15.20507812 136.26367188 C14.08552734 136.23853516 12.96597656 136.21339844 11.8125 136.1875 C10.68134766 136.17396484 9.55019531 136.16042969 8.38476562 136.14648438 C5.58936683 136.11109958 2.79492108 136.06172948 0 136 C0.66 135.67 1.32 135.34 2 135 C2.04669007 117.84115906 2.08197413 100.68233789 2.10362434 83.52344799 C2.11394344 75.55654466 2.12801583 67.58968076 2.15087891 59.62280273 C2.17079344 52.68007342 2.18371183 45.73737265 2.18817699 38.79461557 C2.19078766 35.11739176 2.19693695 31.44024965 2.21146011 27.76305199 C2.22752933 23.66125211 2.22798093 19.5595949 2.22705078 15.45776367 C2.23424133 14.23425201 2.24143188 13.01074036 2.24884033 11.75015259 C2.246091 10.63536026 2.24334167 9.52056793 2.24050903 8.37199402 C2.24235262 7.40134601 2.24419621 6.43069799 2.24609566 5.43063641 C2.16532859 2.74092323 2.16532859 2.74092323 0 0 Z " fill="#10b981" transform="translate(246,328)"/>
<path d="M0 0 C11.22 0 22.44 0 34 0 C34.04603511 6.54721567 34.08582433 13.09386444 34.10986328 19.64111328 C34.11988997 21.86606759 34.13351472 24.09100883 34.15087891 26.31591797 C34.17527392 29.52314491 34.18651671 32.73019685 34.1953125 35.9375 C34.20563507 36.92427734 34.21595764 37.91105469 34.22659302 38.92773438 C34.22833529 49.77350662 31.89621944 59.10522185 24.375 67.1875 C16.80729462 74.38674033 8.63228216 77.17304259 -1.609375 77.09765625 C-2.33618469 77.0962413 -3.06299438 77.09482635 -3.81182861 77.09336853 C-6.12459494 77.08778792 -8.43726312 77.07523904 -10.75 77.0625 C-12.32161318 77.05748249 -13.89322789 77.05292002 -15.46484375 77.04882812 C-19.30993343 77.03782485 -23.1549501 77.02057361 -27 77 C-24 75 -24 75 -20.3125 73.8125 C-12.23983493 70.81492951 -7.60204286 65.26588132 -4.0078125 57.625 C-1.27631195 50.51039392 -0.67244877 44.40922213 -0.5859375 36.81640625 C-0.56657135 35.76090073 -0.5472052 34.7053952 -0.5272522 33.61790466 C-0.46775447 30.2661838 -0.42119035 26.91442803 -0.375 23.5625 C-0.3367928 21.28188655 -0.29773949 19.00128711 -0.2578125 16.72070312 C-0.16049434 11.14721074 -0.08068821 5.57385692 0 0 Z " fill="#10b981" transform="translate(171,302)"/>
<path d="M0 0 C21.26345864 -0.88597744 39.65607304 3.07016403 55.875 17.625 C68.15744761 29.26539793 77.63072407 46.37543128 78.29052734 63.51660156 C78.31685549 65.14113322 78.3315336 66.76588598 78.3359375 68.390625 C78.3459227 69.69117828 78.3459227 69.69117828 78.35610962 71.01800537 C78.36616994 72.83652644 78.37092871 74.65508394 78.37060547 76.47363281 C78.37501024 79.25646773 78.41148416 82.03775413 78.44921875 84.8203125 C78.45508203 86.59374461 78.45905469 88.3671842 78.4609375 90.140625 C78.47530853 90.96983459 78.48967957 91.79904419 78.50448608 92.65338135 C78.47512502 96.34999229 78.401458 98.3942463 76.32373047 101.52929688 C73.44139942 103.3535417 71.75579139 103.46288918 68.359375 103.390625 C67.28945313 103.37773437 66.21953125 103.36484375 65.1171875 103.3515625 C64.00601563 103.31804687 62.89484375 103.28453125 61.75 103.25 C60.62335938 103.23195313 59.49671875 103.21390625 58.3359375 103.1953125 C55.55643104 103.14820222 52.7786466 103.08243361 50 103 C50.33 102.34 50.66 101.68 51 101 C51.66 101 52.32 101 53 101 C53.07520671 95.72048923 53.1290908 90.44130292 53.16479492 85.16137695 C53.17970825 83.37225907 53.20004617 81.58317659 53.22631836 79.79418945 C53.42949028 65.58410601 53.25941139 51.43217146 46.25 38.625 C45.89856934 37.95782959 45.54713867 37.29065918 45.18505859 36.60327148 C42.30757071 31.27687153 39.14905918 26.43371397 35 22 C34.30777344 21.25492188 33.61554688 20.50984375 32.90234375 19.7421875 C23.75536029 10.73263785 11.46531252 4.87661058 -1 2 C-0.67 1.34 -0.34 0.68 0 0 Z " fill="#10b981" transform="translate(400,157)"/>
<path d="M0 0 C2.60301864 0.57525274 3.50065126 1.38039859 5.12109375 3.46875 C6.17086339 6.61805893 6.2224097 8.85689456 6.18359375 12.15625 C6.17457031 13.15011719 6.16554687 14.14398438 6.15625 15.16796875 C6.14464844 15.92722656 6.13304687 16.68648437 6.12109375 17.46875 C7.47654297 17.41654297 7.47654297 17.41654297 8.859375 17.36328125 C10.03886719 17.33621094 11.21835938 17.30914063 12.43359375 17.28125 C13.60535156 17.24644531 14.77710938 17.21164063 15.984375 17.17578125 C19.12109375 17.46875 19.12109375 17.46875 20.984375 18.76953125 C22.878406 21.60081471 23.00533898 24.11186175 23.12109375 27.46875 C21.77546976 30.41630732 21.03554831 32.01152272 18.12109375 33.46875 C16.0805437 33.53940617 14.03775118 33.55296976 11.99609375 33.53125 C10.90039062 33.52222656 9.8046875 33.51320312 8.67578125 33.50390625 C7.83273438 33.49230469 6.9896875 33.48070312 6.12109375 33.46875 C6.17330078 34.57283203 6.17330078 34.57283203 6.2265625 35.69921875 C6.50037693 45.5695771 6.50037693 45.5695771 3.12109375 49.46875 C0.02935623 51.01461876 -2.47320177 50.76234521 -5.87890625 50.46875 C-8.24388064 48.60166495 -9.5392134 47.14813569 -10.87890625 44.46875 C-10.94924394 42.59495395 -10.96320845 40.71873898 -10.94140625 38.84375 C-10.93238281 37.84085938 -10.92335938 36.83796875 -10.9140625 35.8046875 C-10.90246094 35.03382812 -10.89085938 34.26296875 -10.87890625 33.46875 C-12.10867187 33.52095703 -12.10867187 33.52095703 -13.36328125 33.57421875 C-14.4409375 33.60128906 -15.51859375 33.62835938 -16.62890625 33.65625 C-18.22992188 33.70845703 -18.22992188 33.70845703 -19.86328125 33.76171875 C-23.24108736 33.43356401 -24.53821374 32.89147613 -26.87890625 30.46875 C-27.62890625 28.6015625 -27.62890625 28.6015625 -27.87890625 26.59375 C-27.98203125 25.93632813 -28.08515625 25.27890625 -28.19140625 24.6015625 C-27.70063288 21.25203427 -26.3252981 19.75336433 -23.87890625 17.46875 C-20.64453125 16.98046875 -20.64453125 16.98046875 -17.12890625 17.15625 C-15.37320313 17.22392578 -15.37320313 17.22392578 -13.58203125 17.29296875 C-12.69 17.35097656 -11.79796875 17.40898437 -10.87890625 17.46875 C-10.9253125 16.66050781 -10.97171875 15.85226563 -11.01953125 15.01953125 C-11.30925269 6.44170717 -11.30925269 6.44170717 -9.44140625 2.21875 C-6.1711786 -0.0145762 -3.8857887 -0.05242211 0 0 Z " fill="#FFE559" transform="translate(121.87890625,12.53125)"/>
<path d="M0 0 C2.5 1.75 2.5 1.75 4 5 C4.31393262 9.0235697 4.23117557 12.97369207 4 17 C4.89203125 16.94199219 5.7840625 16.88398437 6.703125 16.82421875 C7.87359375 16.77910156 9.0440625 16.73398437 10.25 16.6875 C11.41015625 16.62949219 12.5703125 16.57148437 13.765625 16.51171875 C17 17 17 17 19.38671875 19.33203125 C21.37701728 22.62349348 21.70907457 24.21826895 21 28 C19.25 30.875 19.25 30.875 16 33 C11.96522209 33.41449604 8.04059621 33.28999494 4 33 C4.05800781 33.80824219 4.11601562 34.61648437 4.17578125 35.44921875 C4.54289337 44.14453165 4.54289337 44.14453165 1.9375 48.25 C-1.7524947 50.44829471 -3.77218073 50.69182497 -8 50 C-10.90717073 47.78136971 -11.83981643 46.48055071 -13 43 C-13.06802967 41.27204648 -13.08495645 39.54164635 -13.0625 37.8125 C-13.05347656 36.91144531 -13.04445313 36.01039062 -13.03515625 35.08203125 C-13.02355469 34.39496094 -13.01195312 33.70789063 -13 33 C-13.81984375 33.04640625 -14.6396875 33.0928125 -15.484375 33.140625 C-17.10085938 33.19476563 -17.10085938 33.19476563 -18.75 33.25 C-19.81734375 33.29640625 -20.8846875 33.3428125 -21.984375 33.390625 C-25 33 -25 33 -27.33203125 31.16796875 C-29.49184862 28.36071198 -29.92788519 26.53362583 -30 23 C-27.86956522 18.43478261 -27.86956522 18.43478261 -25 17 C-22.95944995 16.92934383 -20.91665743 16.91578024 -18.875 16.9375 C-17.77929688 16.94652344 -16.68359375 16.95554687 -15.5546875 16.96484375 C-14.71164062 16.97644531 -13.86859375 16.98804687 -13 17 C-13.03480469 16.34773438 -13.06960938 15.69546875 -13.10546875 15.0234375 C-13.27472185 9.5589804 -13.13821564 5.70732346 -10 1 C-6.76928024 -0.61535988 -3.49319752 -0.5660913 0 0 Z " fill="#FFE559" transform="translate(431,47)"/>
<path d="M0 0 C2.98012197 0.84397986 4.16545102 2.08651814 6 4.56640625 C6.390625 7.80078125 6.390625 7.80078125 6.25 11.31640625 C6.21390625 12.486875 6.1778125 13.65734375 6.140625 14.86328125 C6.09421875 15.7553125 6.0478125 16.64734375 6 17.56640625 C6.89203125 17.52 7.7840625 17.47359375 8.703125 17.42578125 C9.87359375 17.3896875 11.0440625 17.35359375 12.25 17.31640625 C13.99023438 17.24679688 13.99023438 17.24679688 15.765625 17.17578125 C19 17.56640625 19 17.56640625 21.390625 19.33203125 C23.08651729 21.68652249 23.54461683 22.71092939 23.5 25.56640625 C23.5103125 26.22640625 23.520625 26.88640625 23.53125 27.56640625 C22.73410612 30.56741851 21.4844507 31.73148514 19 33.56640625 C15.765625 33.95703125 15.765625 33.95703125 12.25 33.81640625 C11.07953125 33.7803125 9.9090625 33.74421875 8.703125 33.70703125 C7.81109375 33.660625 6.9190625 33.61421875 6 33.56640625 C6.04640625 34.4584375 6.0928125 35.35046875 6.140625 36.26953125 C6.19476563 38.02523437 6.19476563 38.02523437 6.25 39.81640625 C6.29640625 40.9765625 6.3428125 42.13671875 6.390625 43.33203125 C6 46.56640625 6 46.56640625 4.19921875 48.953125 C2 50.56640625 2 50.56640625 -1.4375 51.12890625 C-5 50.56640625 -5 50.56640625 -7.9375 48.81640625 C-11.04604785 43.91808842 -10.40548806 39.21620653 -10 33.56640625 C-10.80824219 33.62441406 -11.61648437 33.68242188 -12.44921875 33.7421875 C-21.16816637 34.11029747 -21.16816637 34.11029747 -25.25 31.44140625 C-27.32658223 28.0298783 -27.73507826 26.48682363 -27 22.56640625 C-25.38671875 19.8984375 -25.38671875 19.8984375 -23 17.56640625 C-19.765625 17.078125 -19.765625 17.078125 -16.25 17.25390625 C-14.49429688 17.32158203 -14.49429688 17.32158203 -12.703125 17.390625 C-11.81109375 17.44863281 -10.9190625 17.50664063 -10 17.56640625 C-10.04640625 16.75816406 -10.0928125 15.94992188 -10.140625 15.1171875 C-10.43162233 6.50158797 -10.43162233 6.50158797 -8.5 2.31640625 C-5.48348644 0.20484676 -3.60546254 0.00704192 0 0 Z " fill="#FFE559" transform="translate(53,46.43359375)"/>
<path d="M0 0 C3.34135196 0.99003021 4.37034448 1.30410955 6.375 4 C7.04398951 7.92603496 6.88434592 11.89831125 6.875 15.875 C6.90335938 16.96425781 6.93171875 18.05351562 6.9609375 19.17578125 C6.98044646 27.14519169 6.98044646 27.14519169 4.0703125 31.25390625 C1.375 33 1.375 33 -2.25 33.0625 C-6.0073859 31.87961925 -6.69905786 31.30370408 -8.625 28 C-9.26500718 24.21093422 -9.13450466 20.40000539 -9.125 16.5625 C-9.15335938 15.52544922 -9.18171875 14.48839844 -9.2109375 13.41992188 C-9.23039388 5.84652534 -9.23039388 5.84652534 -6.3203125 1.77734375 C-3.625 0 -3.625 0 0 0 Z " fill="#7C8E9A" transform="translate(137.625,320)"/>
</svg>
